<svg width="16" height="16" viewBox="0 0 16 16" fill="none" xmlns="http://www.w3.org/2000/svg">
<path d="M12.2159 2.22349H3.9659C3.47983 2.22402 3.01383 2.41734 2.67013 2.76105C2.32642 3.10475 2.1331 3.57075 2.13257 4.05682V12.3068C2.1331 12.7929 2.32642 13.2589 2.67013 13.6026C3.01383 13.9463 3.47983 14.1396 3.9659 14.1402H12.2159C12.702 14.1396 13.168 13.9463 13.5117 13.6026C13.8554 13.2589 14.0487 12.7929 14.0492 12.3068V4.05682C14.0487 3.57075 13.8554 3.10475 13.5117 2.76105C13.168 2.41734 12.702 2.22402 12.2159 2.22349ZM11.1918 6.18492L7.34181 10.7683C7.29958 10.8186 7.24703 10.8592 7.18772 10.8874C7.12842 10.9156 7.06374 10.9308 6.99806 10.9318H6.99033C6.92609 10.9318 6.86257 10.9183 6.80389 10.8921C6.74521 10.866 6.69269 10.8278 6.64973 10.78L4.99973 8.94667C4.95783 8.90222 4.92523 8.84985 4.90385 8.79262C4.88248 8.7354 4.87276 8.67448 4.87527 8.61345C4.87777 8.55242 4.89245 8.4925 4.91844 8.43722C4.94443 8.38194 4.98121 8.33242 5.02662 8.29156C5.07203 8.2507 5.12514 8.21932 5.18284 8.19928C5.24055 8.17924 5.30168 8.17094 5.36263 8.17486C5.42359 8.17878 5.48315 8.19485 5.53781 8.22212C5.59247 8.24938 5.64113 8.2873 5.68093 8.33364L6.9783 9.7751L10.49 5.59539C10.5688 5.50432 10.6802 5.4479 10.8002 5.43834C10.9203 5.42877 11.0392 5.46683 11.1314 5.54428C11.2236 5.62172 11.2817 5.73234 11.293 5.85222C11.3043 5.9721 11.2679 6.09161 11.1918 6.18492Z" fill="#FEB708"/>
</svg>
