<svg width="513" height="513" viewBox="0 0 513 513" fill="none" xmlns="http://www.w3.org/2000/svg">
<path d="M447.72 96.0657H336.17V48.0657C336.17 43.8222 334.484 39.7525 331.484 36.752C328.483 33.7514 324.413 32.0657 320.17 32.0657H192.17C187.927 32.0657 183.857 33.7514 180.856 36.752C177.856 39.7525 176.17 43.8222 176.17 48.0657V96.0657H64.62L64.17 136.066H97.17L117.26 450.066C117.768 458.186 121.351 465.807 127.279 471.38C133.206 476.953 141.034 480.059 149.17 480.066H363.17C371.301 480.065 379.127 476.968 385.058 471.405C390.989 465.842 394.579 458.23 395.1 450.116L415.17 136.066H448.17L447.72 96.0657ZM176.17 416.066L167.17 160.066H200.17L209.17 416.066H176.17ZM272.17 416.066H240.17V160.066H272.17V416.066ZM296.17 96.0657H216.17V68.0657C216.17 67.0048 216.591 65.9874 217.342 65.2372C218.092 64.4871 219.109 64.0657 220.17 64.0657H292.17C293.231 64.0657 294.248 64.4871 294.998 65.2372C295.749 65.9874 296.17 67.0048 296.17 68.0657V96.0657ZM336.17 416.066H303.17L312.17 160.066H345.17L336.17 416.066Z" fill="#EE2D68"/>
</svg>
